<svg width="36" height="34" viewBox="0 0 36 34" fill="none" xmlns="http://www.w3.org/2000/svg">
    <path d="M19.4425 13.4093C19.1257 14.5166 17.6405 15.6619 17.4904 15.3614C17.3402 15.061 17.0671 12.9129 16.5143 12.4333H13.2108C10.9133 11.3773 12.7603 9.65548 13.2108 9.27991C13.6612 8.90433 15.3339 8.04664 15.6134 8.00353C15.8928 7.96043 16.5143 8.00353 16.5143 8.00353C17.9481 7.98912 19.4826 9.70744 19.5176 10.1058C19.5525 10.5041 19.4425 13.4093 19.4425 13.4093Z" />
    <path d="M13.9618 28.9508H11.7094C10.9711 28.6752 10.6781 28.4348 10.5081 27.7495V25.9475H8.55597C5.12308 25.265 3.844 24.1627 3 20.6168V19.4906C3.41435 16.6213 4.62068 15.418 7.12944 13.9346H7.65501C8.70327 14.3239 9.04766 14.6825 8.93138 15.7365C8.747 16.3701 8.51421 16.7302 7.91779 17.3883C7.45263 17.9907 7.21224 18.3409 6.9042 19.0401C6.84123 19.4505 6.85178 19.6809 6.9042 20.0912C7.11981 20.7345 7.37436 21.0329 8.10549 21.4427H9.2317C10.0701 20.9254 10.3554 20.5631 10.7333 19.866C12.2011 17.997 13.2862 17.4505 15.4634 16.9378H17.4155C19.7455 16.3472 20.4542 15.506 21.0194 13.409V8.22847C21.2354 6.33282 21.8666 5.64275 23.7974 5H24.9236C25.9724 5.19725 26.4609 5.5009 27.2511 6.20129C28.9972 7.6269 29.0768 8.34311 27.2511 9.42976H24.5482C24.2593 9.54307 24.1499 9.64596 24.0226 9.88025C23.9696 11.5365 24.0434 12.4615 24.3229 14.0848C24.5243 15.4766 24.5832 16.2633 24.4731 17.6886C24.354 18.156 24.3178 18.4825 23.9475 18.8899C23.6419 19.2808 23.4118 19.4361 23.2718 19.9411C23.3238 20.4981 23.5082 20.657 24.1728 20.6919C25.2114 19.8207 25.7388 18.915 26.0498 17.3883C26.1895 15.9805 25.2962 15.0178 25.9747 13.7844C26.546 12.7459 26.9913 12.6333 28.339 12.2925L28.3773 12.2828H29.2032C30.2892 12.5751 30.8402 12.9065 31.7559 13.7094C33.3314 15.0939 33.4959 15.8129 31.7559 16.9378H29.053C28.7774 17.0574 28.6553 17.1636 28.5274 17.4634V19.7909C28.0442 23.1017 27.0643 24.3893 24.0226 25.6472V27.5993C23.882 28.3367 23.6147 28.618 22.8964 28.9508H20.5689C19.8663 28.7271 19.6096 28.4825 19.3676 27.8245C19.168 27.0941 19.1031 26.6821 19.0673 25.9475H15.4634C15.4288 26.6827 15.3583 27.0936 15.1631 27.8245C14.8982 28.4953 14.6167 28.7211 13.9618 28.9508Z"/>
</svg>
