<svg width="616" height="444" viewBox="0 0 616 444" fill="none" xmlns="http://www.w3.org/2000/svg">
  <path fill-rule="evenodd" clip-rule="evenodd" d="M24 60C37.3 60 48 70.7 48 84V308C48 356.6 87.4 396 136 396H456C469.3 396 480 406.7 480 420C480 433.3 469.3 444 456 444H136C60.9 444 0 383.1 0 308V84C0 70.7 10.7 60 24 60Z" />
  <path d="M154.148 0.8125C122.305 0.8125 96.4165 26.7238 96.4165 58.5938V289.719C96.4165 321.589 122.305 347.5 154.148 347.5H558.268C590.111 347.5 616 321.589 616 289.719V58.5938C616 26.7238 590.111 0.8125 558.268 0.8125H154.148ZM197.447 145.266H341.775C349.713 145.266 356.208 151.766 356.208 159.711C356.208 167.656 349.713 174.156 341.775 174.156H197.447C189.509 174.156 183.014 167.656 183.014 159.711C183.014 151.766 189.509 145.266 197.447 145.266ZM183.014 246.383C183.014 238.438 189.509 231.938 197.447 231.938H514.97C522.908 231.938 529.403 238.438 529.403 246.383C529.403 254.328 522.908 260.828 514.97 260.828H197.447C189.509 260.828 183.014 254.328 183.014 246.383ZM435.589 87.4844H507.753C519.751 87.4844 529.403 97.1447 529.403 109.152V152.488C529.403 164.496 519.751 174.156 507.753 174.156H435.589C423.592 174.156 413.94 164.496 413.94 152.488V109.152C413.94 97.1447 423.592 87.4844 435.589 87.4844Z" />
</svg>
